<?xml version="1.0" standalone="no"?>
<!DOCTYPE svg PUBLIC "-//W3C//DTD SVG 20010904//EN"
 "http://www.w3.org/TR/2001/REC-SVG-20010904/DTD/svg10.dtd">
<svg version="1.0" xmlns="http://www.w3.org/2000/svg"
 width="512.000000pt" height="512.000000pt" viewBox="0 0 512.000000 512.000000"
 preserveAspectRatio="xMidYMid meet">
<metadata>
Created by potrace 1.14, written by Peter Selinger 2001-2017
</metadata>
<g transform="translate(0.000000,512.000000) scale(0.100000,-0.100000)"
fill="#000000" stroke="none">
<path d="M2908 4825 c-219 -30 -416 -83 -629 -168 -524 -211 -949 -559 -1262
-1032 -88 -133 -226 -408 -282 -558 -123 -336 -189 -695 -202 -1102 -13 -425
45 -734 192 -1030 224 -451 646 -729 1194 -784 470 -48 891 75 1299 381 188
141 426 391 589 618 152 211 335 559 433 823 232 627 300 1327 168 1755 -70
232 -227 425 -421 521 -130 64 -209 82 -383 88 -292 11 -489 -43 -722 -196
-104 -68 -231 -186 -299 -275 -70 -93 -127 -218 -128 -281 0 -103 54 -113 198
-36 241 130 511 142 680 31 201 -134 277 -421 237 -890 -56 -646 -278 -1254
-595 -1623 -126 -147 -292 -259 -441 -297 -340 -87 -601 120 -715 569 -107
417 -82 1129 57 1686 192 765 608 1307 1140 1484 199 66 210 67 725 57 43 -1
62 4 78 18 26 23 28 76 5 112 -37 55 -159 105 -324 130 -119 18 -457 17 -592
-1z"/>
<path d="M4734 2068 l-19 -23 23 19 c12 11 22 21 22 23 0 8 -8 2 -26 -19z"/>
<path d="M4594 1928 l-19 -23 23 19 c12 11 22 21 22 23 0 8 -8 2 -26 -19z"/>
<path d="M4321 1354 c0 -11 3 -14 6 -6 3 7 2 16 -1 19 -3 4 -6 -2 -5 -13z"/>
<path d="M4311 1294 c0 -11 3 -14 6 -6 3 7 2 16 -1 19 -3 4 -6 -2 -5 -13z"/>
<path d="M4303 1195 c0 -22 2 -30 4 -17 2 12 2 30 0 40 -3 9 -5 -1 -4 -23z"/>
<path d="M4302 1000 c0 -19 2 -27 5 -17 2 9 2 25 0 35 -3 9 -5 1 -5 -18z"/>
<path d="M4311 914 c0 -11 3 -14 6 -6 3 7 2 16 -1 19 -3 4 -6 -2 -5 -13z"/>
<path d="M4600 416 c0 -2 8 -10 18 -17 15 -13 16 -12 3 4 -13 16 -21 21 -21
13z"/>
<path d="M5078 193 c7 -3 16 -2 19 1 4 3 -2 6 -13 5 -11 0 -14 -3 -6 -6z"/>
</g>
</svg>
